<svg width="172" height="24" viewBox="0 0 172 24" fill="none" xmlns="http://www.w3.org/2000/svg">
<g clip-path="url(#clip0_143_17)">
<path d="M24.5449 22.6748L21.0807 19.9424C23.2115 17.8773 24.528 15.07 24.528 11.9783C24.5322 5.64884 19.03 0.5 12.2661 0.5C5.50224 0.5 0 5.64884 0 11.9783C0 18.3077 5.50224 23.4566 12.2661 23.4566C15.3084 23.4566 18.0933 22.4142 20.241 20.6887L23.8023 23.5039L24.5449 22.6787V22.6748ZM12.2661 1.58189C18.3929 1.58189 23.3761 6.24506 23.3761 11.9783C23.3761 14.8054 22.1651 17.368 20.1988 19.2475L3.27434 5.87785C5.29549 3.27579 8.57405 1.58189 12.2661 1.58189ZM19.3465 19.9819C17.4224 21.4744 14.954 22.3747 12.2661 22.3747C6.13939 22.3747 1.15615 17.7115 1.15615 11.9783C1.15615 10.0909 1.70046 8.31803 2.64142 6.79391L19.3465 19.9858V19.9819Z" fill="#F4F6F9"/>
<path d="M47.5202 0.768497V14.6593C47.5202 18.9118 43.8324 22.3747 39.2964 22.3747C34.7604 22.3747 31.0726 18.9118 31.0726 14.6593V0.768497H29.9207V14.6593C29.9207 19.5081 34.1275 23.4566 39.3006 23.4566C44.4738 23.4566 48.6806 19.512 48.6806 14.6593V0.768497H47.5287H47.5202Z" fill="#F4F6F9"/>
<path d="M147.071 0.768497V14.6593C147.071 18.9118 143.383 22.3747 138.847 22.3747C134.311 22.3747 130.623 18.9118 130.623 14.6593V0.768497H129.471V14.6593C129.471 19.5081 133.678 23.4566 138.851 23.4566C144.025 23.4566 148.231 19.512 148.231 14.6593V0.768497H147.079H147.071Z" fill="#F4F6F9"/>
<path d="M99.0699 0.768497V21.1704L82.2087 0.768497H81.4661V23.0459H82.5631V2.8691L99.2344 23.0499H100.167V0.768497H99.0699Z" fill="#F4F6F9"/>
<path d="M75.2045 23.0341H76.4956L64.6008 0.768497H63.7274L51.8284 23.0341H53.1195L57.3306 15.1489H70.9892L75.2003 23.0341H75.2045ZM64.1662 2.36764L70.4195 14.067H57.9171L64.1704 2.36764H64.1662Z" fill="#F4F6F9"/>
<path d="M123.906 0.768497H105.724V1.75167H114.269V23.0499H115.361V1.75167H123.906V0.768497Z" fill="#F4F6F9"/>
<path d="M171.354 15.0068C170.932 14.3355 170.316 13.767 169.531 13.3129C168.768 12.8706 167.823 12.4995 166.734 12.2073C165.658 11.9191 164.447 11.6506 163.13 11.4018C161.822 11.157 160.687 10.9043 159.755 10.6516C158.839 10.4028 158.08 10.1027 157.506 9.75923C156.949 9.42755 156.531 9.01691 156.27 8.53914C156.004 8.05743 155.869 7.44146 155.869 6.71099C155.869 5.98052 156.008 5.26189 156.282 4.66567C156.552 4.07339 156.983 3.55614 157.569 3.12575C158.16 2.68747 158.932 2.3479 159.86 2.11494C160.801 1.87803 161.953 1.75562 163.282 1.75562C164.612 1.75562 165.835 1.92541 166.814 2.26103C167.78 2.5927 168.73 3.22446 169.629 4.12867L169.84 4.33794L170.671 3.5127L170.485 3.32712C169.523 2.35579 168.443 1.65691 167.278 1.24232C166.122 0.831674 164.755 0.626352 163.211 0.626352C161.919 0.626352 160.742 0.760601 159.704 1.0212C158.658 1.28575 157.746 1.68455 156.995 2.2018C156.236 2.72695 155.645 3.3824 155.236 4.14446C154.826 4.90652 154.62 5.79099 154.62 6.77416C154.62 7.75734 154.814 8.52335 155.189 9.16695C155.569 9.81056 156.139 10.3515 156.881 10.774C157.603 11.1846 158.497 11.5282 159.531 11.7888C160.548 12.0454 161.734 12.2902 163.05 12.5153C164.392 12.7561 165.578 13.0246 166.569 13.3089C167.54 13.5853 168.35 13.9288 168.97 14.3197C169.574 14.7027 170.025 15.1608 170.316 15.682C170.607 16.2032 170.751 16.8626 170.751 17.6325C170.751 19.1882 170.122 20.3175 168.827 21.0796C167.51 21.8574 165.675 22.2523 163.375 22.2523C161.611 22.2523 160.021 21.9996 158.645 21.5021C157.274 21.0045 155.983 20.1912 154.814 19.0737L154.624 18.896L153.675 19.6502L153.898 19.8555C155.194 21.044 156.616 21.9285 158.13 22.4813C159.641 23.0341 161.392 23.3144 163.341 23.3144C166 23.3144 168.118 22.8209 169.645 21.8535C171.207 20.8624 171.996 19.4094 171.996 17.5378C171.996 16.5309 171.78 15.678 171.354 15.0028V15.0068Z" fill="#F4F6F9"/>
</g>
<defs>
<clipPath id="clip0_143_17">
<rect width="172" height="23" fill="white" transform="translate(0 0.5)"/>
</clipPath>
</defs>
</svg>
