<svg width="43" height="40" viewBox="0 0 43 40" fill="none" xmlns="http://www.w3.org/2000/svg">
<g clip-path="url(#clip0_143_13)">
<path d="M42.99 39.3312L35.5189 32.725C42.5276 25.0988 42.2336 13.4694 34.6242 6.18719C26.7032 -1.39573 13.8618 -1.39573 5.94075 6.18719C-1.98025 13.7701 -1.98025 26.0635 5.94075 33.6464C9.90125 37.4378 15.0906 39.3336 20.2825 39.3336H42.99V39.3312ZM29.3972 11.1887C34.1895 15.7765 34.4156 23.0731 30.0882 27.9207L11.1653 11.1887C16.1988 6.37002 24.3611 6.37002 29.3972 11.1887Z" fill="url(#paint0_linear_143_13)"/>
<path d="M11.1652 11.1887C8.83316 13.4213 7.38818 16.5078 7.38818 19.9144C7.38818 26.7299 13.1606 32.2559 20.2799 32.2559C24.2077 32.2559 27.7209 30.5718 30.0857 27.9207L11.1652 11.1887Z" fill="url(#paint1_linear_143_13)"/>
<path opacity="0.8" d="M29.3972 11.1887C34.1895 15.7765 34.4157 23.0731 30.0883 27.9207L35.5189 32.725C42.5277 25.0988 42.2337 13.4694 34.6243 6.18719" fill="url(#paint2_linear_143_13)"/>
</g>
<defs>
<linearGradient id="paint0_linear_143_13" x1="7.0515" y1="39.4274" x2="36.1239" y2="9.06135" gradientUnits="userSpaceOnUse">
<stop offset="0.07" stop-color="#0000FF"/>
<stop offset="0.5" stop-color="#ED4CCE"/>
<stop offset="1" stop-color="#FFE91F"/>
</linearGradient>
<linearGradient id="paint1_linear_143_13" x1="7.01123" y1="21.7235" x2="29.7087" y2="21.7235" gradientUnits="userSpaceOnUse">
<stop stop-color="#1E1E95"/>
<stop offset="0.94" stop-color="#ED4CCE" stop-opacity="0.5"/>
</linearGradient>
<linearGradient id="paint2_linear_143_13" x1="35.7522" y1="30.9238" x2="45.2115" y2="19.5597" gradientUnits="userSpaceOnUse">
<stop stop-color="#0000FF"/>
<stop offset="0.406556" stop-color="#FC6AD4" stop-opacity="0.2"/>
<stop offset="0.88743" stop-color="#FFDE1D" stop-opacity="0"/>
</linearGradient>
<clipPath id="clip0_143_13">
<rect width="43" height="39" fill="white" transform="translate(0 0.5)"/>
</clipPath>
</defs>
</svg>
