<svg width="21" height="21" viewBox="0 0 21 21" fill="none" xmlns="http://www.w3.org/2000/svg">
<path fill-rule="evenodd" clip-rule="evenodd" d="M10.5 0C16.2991 0 21 4.81942 21 10.7656C21 15.521 17.9949 19.5551 13.8253 20.98C13.293 21.086 13.104 20.7498 13.104 20.4632C13.104 20.1083 13.1166 18.9491 13.1166 17.5085C13.1166 16.5047 12.7806 15.8496 12.4037 15.5157C14.742 15.249 17.199 14.3385 17.199 10.2037C17.199 9.02765 16.7916 8.068 16.1175 7.3141C16.2267 7.04215 16.5868 5.94714 16.0146 4.46455C16.0146 4.46455 15.1347 4.17608 13.1302 5.56838C12.2913 5.33003 11.3925 5.2101 10.5 5.2059C9.6075 5.2101 8.70975 5.33003 7.87185 5.56838C5.8653 4.17608 4.9833 4.46455 4.9833 4.46455C4.41315 5.94714 4.7733 7.04215 4.88145 7.3141C4.2105 8.068 3.79995 9.02765 3.79995 10.2037C3.79995 14.328 6.2517 15.2524 8.58375 15.5244C8.28345 15.7932 8.0115 16.2674 7.917 16.9635C7.3185 17.2386 5.7981 17.7147 4.8615 16.0694C4.8615 16.0694 4.30605 15.035 3.25185 14.9594C3.25185 14.9594 2.2281 14.9458 3.18045 15.6136C3.18045 15.6136 3.8682 15.9444 4.34595 17.1886C4.34595 17.1886 4.9623 19.1101 7.8834 18.4591C7.88865 19.3589 7.8981 20.207 7.8981 20.4632C7.8981 20.7477 7.7049 21.0808 7.18095 20.981C3.00825 19.5583 0 15.5221 0 10.7656C0 4.81942 4.7019 0 10.5 0Z" fill="#D4D3E0"/>
</svg>
