<svg width="24" height="17" viewBox="0 0 24 17" fill="none" xmlns="http://www.w3.org/2000/svg">
<path fill-rule="evenodd" clip-rule="evenodd" d="M9.58613 11.6403V4.82593C11.9768 5.96424 13.8283 7.06387 16.0181 8.24941C14.212 9.26299 11.9768 10.4003 9.58613 11.6403ZM22.9092 1.43684C22.4968 0.887064 21.794 0.459108 21.0457 0.317425C18.8463 -0.105207 5.12518 -0.106409 2.92698 0.317425C2.32693 0.431252 1.7926 0.706389 1.3336 1.13387C-0.600435 2.95031 0.00559941 12.6913 0.471777 14.2693C0.667809 14.9522 0.921228 15.4448 1.24038 15.7681C1.65157 16.1956 2.21456 16.4899 2.86123 16.6219C4.67214 17.001 14.0016 17.2129 21.0074 16.6789C21.6529 16.565 22.2243 16.2612 22.6749 15.8156C24.4631 14.0064 24.3412 3.7183 22.9092 1.43684Z" fill="#D4D3E0"/>
</svg>
