<svg width="395" height="102" viewBox="0 0 395 102" fill="none" xmlns="http://www.w3.org/2000/svg">
<path d="M101.657 98.1483L87.3267 86.0478C96.1479 76.8987 101.608 64.4867 101.608 50.7958C101.591 22.7909 78.8006 0 50.7957 0C22.7909 0 0 22.7909 0 50.7958C0 78.8007 22.7909 101.592 50.7957 101.592C63.3881 101.592 74.9311 96.9678 83.8179 89.3435L98.5745 101.788L101.657 98.1319V98.1483ZM50.7957 4.78772C76.1608 4.78772 96.8037 25.4307 96.8037 50.7958C96.8037 63.3061 91.7865 74.6524 83.6539 82.9653L13.5597 23.8074C21.9382 12.2808 35.498 4.78772 50.7957 4.78772ZM80.1123 86.2282C72.1437 92.8359 61.9288 96.8038 50.7957 96.8038C25.4307 96.8038 4.78772 76.1608 4.78772 50.7958C4.78772 42.4336 7.03401 34.6126 10.9527 27.8409L80.1287 86.2282H80.1123Z" fill="#0C1014"/>
<path opacity="0.8" d="M169.346 100.911H134.42V3.89392H169.346C196.097 3.89392 217.854 25.6512 217.854 52.4024C217.854 79.1536 196.097 100.911 169.346 100.911ZM139.112 96.2191H169.346C193.505 96.2191 213.162 76.5612 213.162 52.4024C213.162 28.2436 193.505 8.58572 169.346 8.58572H139.112V96.2191Z" fill="#3D3C44"/>
<path opacity="0.8" d="M318.654 100.911H323.918L275.409 3.89392H271.847L223.338 100.911H228.603L245.78 66.5414H301.461L318.638 100.911H318.654ZM273.644 10.8601L299.139 61.8337H248.165L273.66 10.8601H273.644Z" fill="#3D3C44"/>
<path opacity="0.8" d="M394.703 3.89392H388.977L356.039 53.5634L323.117 3.89392H317.392L353.654 58.6051V100.911H358.425V58.6051L394.703 3.89392Z" fill="#3D3C44"/>
</svg>
